<svg xmlns="http://www.w3.org/2000/svg" viewBox="0 0 130.03 392.25"><defs><style>.cls-1{fill:#fff;}</style></defs><g id="Layer_2" data-name="Layer 2"><g id="Layer_4" data-name="Layer 4"><ellipse class="cls-1" cx="60.91" cy="39.86" rx="37.39" ry="39.86"/><path class="cls-1" d="M23,135.89s-2.87-25.16,19.12-36.65c0,0,17.37-9.34,26.77-11.5a33.76,33.76,0,0,1,17.05,0s10.84,1.33,11.79,14.43c0,0,.64,7.88-2.23,14.72a311,311,0,0,1-15.3,32.88S64.39,179.45,61,197.86s-3.5,36.65,1.92,47.77c0,0,6.37,17.91,25.33,34.49,0,0,26.61,22.72,33.31,34.5,0,0,11.79,17.41,7.48,35.16s-23.58,31.34-29,34.16-27.72,13.43-58.32,5.31S1.13,354.59.65,344.64c-1.73-2.62.1-31.78,4.14-48.6a396.68,396.68,0,0,1,15-48.42s16.26-38.81,8-73.31C27.74,174.31,22.8,143.67,23,135.89Z" transform="translate(0)"/></g></g></svg>